# xmcd CD database file
#
# Track frame offsets:
#	150
#	13794
#	24989
#	38145
#	49779
#	63438
#	82643
#	94533
#	112853
#	129639
#	151869
#	168114
#	190953
#	206493
#	236440
#	257138
#	276915
#	291871
#	304577
#	346274
#
# Disc length: 4710 seconds
#
# Revision: 5
# Processed by: cddbd v1.5.2PL0 Copyright (c) Steve Scherf et al.
# Submitted via: CDex 1.70beta2
#
DISCID=01126414
DTITLE=Bintangs - The Complete Collection - CD 2
DYEAR=2003
DGENRE=Classical
TTITLE0=I'm A Man
TTITLE1=Walking The Boogie
TTITLE2=S60 Boss
TTITLE3=See Me Waiting Girl
TTITLE4=No Blame
TTITLE5=Blues On The Ceiling
TTITLE6=Down South Blues
TTITLE7=Hound Is On The Run
TTITLE8=The Dying Of Mr. Fernandez
TTITLE9=Too Much
TTITLE10=Demons (prev. unreleased on CD)
TTITLE11=Hold It Susie/Juvenile Junkie
TTITLE12=You Got Love
TTITLE13=Well, Then It's Allright
TTITLE14=Blues With A Feeling
TTITLE15=My Babe
TTITLE16=It's All Over Now
TTITLE17=Rock It Little Bastard
TTITLE18=I'm Gonna Let You Down
TTITLE19=Agnes Grey
EXTD=YEAR: 2003
EXTT0=
EXTT1=
EXTT2=
EXTT3=
EXTT4=
EXTT5=
EXTT6=
EXTT7=
EXTT8=
EXTT9=
EXTT10=
EXTT11=
EXTT12=
EXTT13=
EXTT14=
EXTT15=
EXTT16=
EXTT17=
EXTT18=
EXTT19=
PLAYORDER=
